<svg id="Layer_1" data-name="Layer 1" xmlns="http://www.w3.org/2000/svg" viewBox="0 0 250 250"><title>Artboard 1 copy 4</title><path d="M153.57,82.53a1,1,0,0,1,1.09-.89l5.66.56a1,1,0,0,1-.09,2h-.1l-5.67-.56A1,1,0,0,1,153.57,82.53ZM153.3,94l5.67.6h.11a1,1,0,0,0,.1-2l-5.67-.6a1,1,0,1,0-.21,2Zm11.35,1.2,5.68.6h.1a1,1,0,0,0,.11-2l-5.68-.6a1,1,0,0,0-.21,2Zm-32.84-13.8,5.66.56h.1a1,1,0,0,0,.1-2L132,79.38a1,1,0,0,0-.2,2Zm11.33,1.13,5.66.56h.1a1,1,0,0,0,.1-2l-5.66-.56a1,1,0,0,0-1.1.89A1,1,0,0,0,143.14,82.5Zm22.65,2.26,5.66.56h.1a1,1,0,0,0,.1-2L166,82.77a1,1,0,0,0-1.1.89A1,1,0,0,0,165.79,84.76Zm-23.84,8,5.67.6h.11a1,1,0,0,0,.1-2l-5.67-.6a1,1,0,1,0-.21,2Zm35.16-6.88,5.67.56h.1a1,1,0,0,0,.1-2l-5.67-.56a1,1,0,0,0-.2,2ZM188.44,87l5.66.56h.1a1,1,0,0,0,.1-2L188.64,85a1,1,0,0,0-1.1.89A1,1,0,0,0,188.44,87Zm10.27,11.74,5.67.6h.11a1,1,0,0,0,.1-2l-5.67-.6a1,1,0,0,0-.21,2Zm1.06-10.61,5.66.56h.1a1,1,0,0,0,.1-2L200,86.16a1,1,0,0,0-1.09.89A1,1,0,0,0,199.77,88.15Zm-12.42,9.41,5.68.6h.11a1,1,0,0,0,.1-2l-5.68-.59a1,1,0,1,0-.21,2ZM176,96.37l5.68.6h.1a1,1,0,0,0,.11-2l-5.68-.6a1,1,0,0,0-1.1.89A1,1,0,0,0,176,96.37Zm-45.4-4.79,5.67.59h.11a1,1,0,0,0,.1-2l-5.68-.59a1,1,0,0,0-1.09.89A1,1,0,0,0,130.6,91.58Zm80.49-2.3,5.66.56h.1a1,1,0,0,0,.1-2l-5.66-.56a1,1,0,0,0-1.09.89A1,1,0,0,0,211.09,89.28ZM32.55,135.2a1,1,0,0,0,.79,1.18l129.07,26.11.2,0a1,1,0,0,0,.2-2L33.73,134.41A1,1,0,0,0,32.55,135.2Zm87.93-55,5.67.56h.1a1,1,0,0,0,.1-2l-5.67-.56a1,1,0,0,0-1.09.89A1,1,0,0,0,120.48,80.24Zm94.6,47.24a2,2,0,0,1-.71,2.1l-43.87,34,0,7a2,2,0,0,1-.74,1.55,2,2,0,0,1-1.26.45,2,2,0,0,1-.41-.05L25.1,143a2,2,0,0,1-1.6-2v-7.34a2,2,0,0,1,1.33-1.89L87,109.71v-1.23a1,1,0,0,1,2,0v1.11l35.43,4.68v-9.85c0-.52-1.47-1.36-3.21-1.36a3.14,3.14,0,0,0-1.63.38.94.94,0,0,0-.48.87v3.31a1,1,0,0,1-1,1h-5.17a1,1,0,0,1-1-1v-5.36a5.66,5.66,0,0,1,2.92-5,11.83,11.83,0,0,1,6.07-1.49c5.26,0,10.86,2.67,10.86,7.61v11.85l80.37,10.61V125a1,1,0,1,1,2,0v1.29A2,2,0,0,1,215.08,127.48Zm-88.66-23.06v17.13h3.36V103.39c0-3.51-4.51-5.61-8.86-5.61a9.88,9.88,0,0,0-5,1.19,3.72,3.72,0,0,0-2,3.29v4.36h3.17v-2.31a3,3,0,0,1,1.41-2.57,5.1,5.1,0,0,1,2.7-.68C123.72,101.06,126.42,102.35,126.42,104.42Zm81.71,24.94-76.35-10.08v3.27a1,1,0,0,1-1,1h-5.36a1,1,0,0,1-1-1v-4.24L88.2,113.52,27.5,135.08v4.3l139,28.78,0-5.57a2,2,0,0,1,.78-1.57Zm9.15-34.54-4.43,3.42L210.27,98a1,1,0,0,0-1.1.89,1,1,0,0,0,.89,1.1l2.09.22v2.1a1,1,0,0,0,2,0V99.77l4.35-3.37a1,1,0,1,0-1.22-1.58Zm9.2-5.15a1,1,0,0,0,0-.24.93.93,0,0,0-.1-.2.42.42,0,0,0-.07-.13h0a.82.82,0,0,0-.2-.17l-.09-.08a.69.69,0,0,0-.13,0,1,1,0,0,0-.25-.07h0l-3-.29a1,1,0,0,0-1.1.89,1,1,0,0,0,.9,1.1l.49,0-.89.69a1,1,0,0,0,.61,1.79,1,1,0,0,0,.61-.21l2.87-2.22,0,0a1,1,0,0,0,.16-.19.39.39,0,0,0,.08-.1,1.29,1.29,0,0,0,.07-.21.83.83,0,0,0,0-.15h0A.68.68,0,0,0,226.48,89.67Zm-13.33,28.76a1,1,0,0,0,1-1v-7.58a1,1,0,0,0-2,0v7.58A1,1,0,0,0,213.15,118.43ZM88,103a1,1,0,0,0,1-1V95.54a1,1,0,0,0-2,0V102A1,1,0,0,0,88,103Zm67.74,26.8a1,1,0,0,1,.44,1.79l-24.4,17.66a.94.94,0,0,1-.58.19.68.68,0,0,1-.2,0L78.4,139.06a1,1,0,0,1-.28-1.86l27.89-15a.94.94,0,0,1,.52-.11h.06l.12,0Zm-2.7,1.6-45.44-7.11v15a1,1,0,0,1-2,0V124.72L81.53,137.64,131,147.39ZM109.08,80.3a1.18,1.18,0,0,0,.31,0L112,79.4l2.78.27h.1a1,1,0,0,0,.1-2l-3-.29h0a1,1,0,0,0-.24,0,.77.77,0,0,0-.15,0h0l-2.86.92a1,1,0,0,0,.31,2Zm-1.19,8.88,5.68.6h.1a1,1,0,0,0,.11-2l-5.68-.6a1,1,0,0,0-1.1.89A1,1,0,0,0,107.89,89.18ZM88,90.07a1,1,0,0,0,1-1V87.18l1.87.2a1,1,0,0,0,1.1-.89,1,1,0,0,0-.29-.8,1,1,0,0,0,.12-.84,1,1,0,0,0-1.25-.65l-2.86.92h0l0,0a1.06,1.06,0,0,0-.33.18h0a.24.24,0,0,0-.06.08.76.76,0,0,0-.17.23.83.83,0,0,0,0,.15A.94.94,0,0,0,87,86v3A1,1,0,0,0,88,90.07Zm31.25.31,5.68.6H125a1,1,0,0,0,.1-2l-5.68-.6a1,1,0,0,0-.21,2ZM96.54,88l5.68.6h.1a1,1,0,0,0,.1-2L96.75,86a1,1,0,0,0-1.1.89A1,1,0,0,0,96.54,88Zm.38-3.78a.84.84,0,0,0,.31,0l6.08-2a1,1,0,1,0-.62-1.9l-6.07,2a1,1,0,0,0,.3,2Z"/></svg>