<svg id="Layer_1" data-name="Layer 1" xmlns="http://www.w3.org/2000/svg" viewBox="0 0 250 250"><title>Artboard 1</title><path d="M125,77.88c3.32,0,11-.29,11-2.95S128.36,72,125,72s-11,.28-11,2.94S121.73,77.88,125,77.88ZM125,74a29.3,29.3,0,0,1,8.46.94,28.81,28.81,0,0,1-8.46.95,28.92,28.92,0,0,1-8.46-.95A29.41,29.41,0,0,1,125,74Zm75.5-5.08a1,1,0,0,0-1-.06l-12.75,6-18.11,8.5-6.46,3H87.74l-6.46-3-18.11-8.5-12.75-6a1,1,0,0,0-1.42.91V169.82a1,1,0,0,0,.46.84,1,1,0,0,0,.54.16.9.9,0,0,0,.42-.1L73.19,160l2.38-1.12a22.29,22.29,0,0,0,14.91,13.8,12.73,12.73,0,0,1-2.29,3.49c-1,1.18-1.92,2.29-1.26,3.7a2.38,2.38,0,0,0,2.35,1.33h5.35c2.61,0,5.13-3.7,6.17-7h48.4c1,3.28,3.56,7,6.17,7h5.35a2.38,2.38,0,0,0,2.35-1.33c.66-1.41-.27-2.52-1.26-3.7a12.73,12.73,0,0,1-2.29-3.49,22.29,22.29,0,0,0,14.91-13.8l2.38,1.12,22.77,10.68a.9.9,0,0,0,.42.1,1,1,0,0,0,.54-.16,1,1,0,0,0,.46-.84V69.76A1,1,0,0,0,200.54,68.91Zm-30.4,16,16.12-7.56V86l-8.44,3-.92.32-6.76,2.38Zm7,24.09-7,.81v-7l5.44-1.27,1.88-.44,8.8-2.07v8.86Zm.11,11.83h9v8.89l-6.71-.79-9.41-1.1v-7ZM163.48,88l4.66-2.18v6.6l-1.21.43-3.45,1.21Zm0,8.18,4.43-1.56,1.57-.55,4.75-1.67,2-.7v7.63L164.93,102l-1.45.34Zm0,8.2,4.65-1.1h0V110l-2.11.25-2.55.3Zm0,8.2,5.84-.69,6.91-.81v7.72H163.48Zm0,8.22h4.66v6.76l-4.66-.55Zm12.75,9.72v2a27.69,27.69,0,0,0-3-.15h-9.78V129Zm5.66,11.07,4.37,1v8.8l-8.62-3A21.25,21.25,0,0,1,181.89,141.58Zm-17-1.1H85.16c-10.63,0-14.6-2-15.49-2.81.62-.46,2.63-1.35,7.07-1.35h96.52c4.44,0,6.45.89,7.07,1.35C179.44,138.52,175.47,140.48,164.84,140.48Zm-96.74,1.1a21.17,21.17,0,0,1,4.26,6.8l-8.62,3v-8.8l1.24-.29ZM86.52,127l-4.66.55v-6.76h4.66Zm0-16.44-2.36-.28-2.3-.27v-6.74l.61.15,4,1Zm0,2v6.22H73.77v-7.72l6.63.78Zm-6.66-2.8-7-.81-9.14-1.08V99l8.8,2.07,3.24.76,4.08,1Zm0,11v7l-8.52,1-7.6.89v-8.89H79.86ZM86.52,129v3.3H76.74a27.69,27.69,0,0,0-3,.15v-2Zm58.2,3.3v-3.43h16.76v3.43ZM125,126.89h-8.3v-6.1h16.68v6.1H125Zm1.08,2h16.68v3.43H126Zm9.3-2v-6.1H152.1v6.1H135.34Zm18.76,0v-6.1h7.38v6.1Zm7.38-16.21H154.1v-6.11h7.38Zm0,2v6.11H144.72v-6.11h16.76Zm-9.38-2H135.34v-6.11H152.1Zm-9.38,2v6.11H126v-6.11h16.68Zm-9.38-2H116.66v-6.11h16.68Zm-9.38,2v6.11H107.28v-6.11H124Zm-9.3-2H97.9v-6.11h16.76Zm0,10.11v6.1H97.9v-6.1h16.76Zm-7.38,8.1H124v3.43H107.28ZM154.1,88.36h7.38v6.11H154.1Zm7.38,8.11v6.1H144.72v-6.1h16.76Zm-26.14-8.11H152.1v6.11H135.34Zm7.38,8.11v6.1H126v-6.1h16.68Zm-26.06-8.11h16.68v6.11H116.66Zm-1,8.11H124v6.1H107.28v-6.1h8.38ZM97.9,88.36h16.68v6.11H97.9Zm-9.38,0H95.9v6.11H88.52Zm0,8.11h16.76v6.1H88.52Zm0,8.1H95.9v6.11H88.52Zm0,8.11h16.76v6.11H88.52Zm0,8.11H95.9v6.1H88.52Zm8.38,8.1h8.38v3.43H88.52v-3.43Zm-15-43.08L86.52,88v6.06l-3.65-1.28-1-.36Zm-.28,8.63,4.94,1.73v6.14l-1.9-.44L75.83,99.8l-2.06-.48V91.69l4.57,1.6,2.18.77ZM63.74,77.31l16.12,7.56v6.84L63.74,86ZM51,71.33l10.74,5v9L51,81.55Zm0,12.35,20.6,7.24.17.06v7.87L63,96.79l-5.68-1.34L51,94ZM51,96l10.74,2.52v9.1L52,106.51l-1-.12Zm0,12.37,11.63,1.37,9.14,1.07v8H51Zm0,12.39H61.74v9.12L51,131.17Zm0,12.39,2.71-.31,9.15-1.08h0l8.91-1v2c-4,.76-6.25,2.49-6.25,4.88a3.67,3.67,0,0,0,.83,2.31l-3.83.9L51,143.54Zm0,12.42,5.55-1.31,5.19-1.21v9l-10.28,3.62-.46.16Zm20.77,12.9L51,168.24V158l12.08-4.25,8.69-3.06Zm2-.94v-4.49c.3,1.3.66,2.63,1.11,4Zm83,11.77a2,2,0,0,0-1.5,1.71,1.88,1.88,0,0,0,0,.53,10.35,10.35,0,0,0,2.26,5.67h-1.94a9.58,9.58,0,0,1-2.83-5.33,2,2,0,0,0-2.1-1.72c-1,.06-1.81.08-2.64.08H102c-.83,0-1.67,0-2.64-.08a2,2,0,0,0-2.1,1.72,9.58,9.58,0,0,1-2.83,5.33H92.48a10.47,10.47,0,0,0,2.26-5.55,2.26,2.26,0,0,0,0-.64,2,2,0,0,0-1.52-1.72c-10.94-2.63-14.09-10.44-15.72-17.74a29.2,29.2,0,0,0-3-8,59.56,59.56,0,0,0,10.65.85h79.68a59.56,59.56,0,0,0,10.65-.85,29.2,29.2,0,0,0-3,8C170.84,158.89,167.69,166.7,156.75,169.33ZM175.12,157c.45-1.34.81-2.67,1.11-4v4.49ZM199,168.24l-20.77-9.74v-7.79l8.69,3.06L199,158Zm0-12.34-.55-.19-10.19-3.59v-9l6.13,1.43L199,145.6Zm0-12.36-11.51-2.7-3.84-.9a3.67,3.67,0,0,0,.83-2.31c0-2.39-2.3-4.12-6.25-4.88v-2l8.91,1h0l8.68,1,3.18.37Zm0-12.37-10.74-1.26v-9.12H199Zm0-12.38H178.23v-8l9.14-1.07L199,108.4Zm0-12.4-1,.11-9.77,1.15v-9.1l4.8-1.12L199,96ZM199,94l-7.91,1.85-4.06,1-8.8,2.06V91l2.91-1L199,83.68Zm0-12.43-10.74,3.78v-9l10.74-5Zm-74-2.76a1,1,0,0,1,1,1v4.44a1,1,0,0,1-2,0V79.79A1,1,0,0,1,125,78.79Zm6.46.38.55,4.41a1,1,0,0,1-.87,1.12h-.12a1,1,0,0,1-1-.88l-.56-4.41a1,1,0,0,1,2-.25ZM136,78l1.28,4.26a1,1,0,0,1-.67,1.24.93.93,0,0,1-.29,0,1,1,0,0,1-.95-.72l-1.29-4.25a1,1,0,0,1,.67-1.25A1,1,0,0,1,136,78Zm-16.29.26a1,1,0,0,1,.87,1.12L120,83.83a1,1,0,0,1-1,.88h-.12a1,1,0,0,1-.87-1.12l.55-4.41A1,1,0,0,1,119.71,78.3Zm-6.9,4L114.09,78a1,1,0,1,1,1.91.58l-1.28,4.25a1,1,0,0,1-1,.72,1,1,0,0,1-.29,0A1,1,0,0,1,112.81,82.3Z"/></svg>