<svg id="Layer_1" data-name="Layer 1" xmlns="http://www.w3.org/2000/svg" viewBox="0 0 250 250"><title>Artboard 1 copy 6</title><path d="M72.29,110.12a1,1,0,0,1,1.15-.82l18.33,3a1,1,0,0,1-.16,2h-.16l-18.33-3A1,1,0,0,1,72.29,110.12Zm20.34,1.52a1,1,0,0,0,1.41,0,1,1,0,0,0,0-1.42l-8.31-7.87a1,1,0,0,0-1.38,1.45Zm6.46-2h.14a1,1,0,0,0,1-.87l1.44-10.39a1,1,0,1,0-2-.27l-1.44,10.39A1,1,0,0,0,99.09,109.68Zm-4.23-.16a1,1,0,0,0,1,.74,1.09,1.09,0,0,0,.26,0,1,1,0,0,0,.71-1.22L92.58,93.19a1,1,0,0,0-1.94.51Zm7.32,1.62a1,1,0,0,0,.51.14,1,1,0,0,0,.86-.49l8.58-14.49a1,1,0,0,0-.35-1.37,1,1,0,0,0-1.37.35l-8.58,14.49A1,1,0,0,0,102.18,111.14Zm-1.18,9.3a2.47,2.47,0,0,0,1.61,0c.44-.18.44-.48,0-.66a2.47,2.47,0,0,0-1.61,0C100.55,120,100.55,120.26,101,120.44Zm14.5-4.21a2.47,2.47,0,0,0,1.61,0c.45-.18.45-.48,0-.66a2.47,2.47,0,0,0-1.61,0C115.06,115.75,115.06,116.05,115.5,116.23Zm2.8-3a2.47,2.47,0,0,0,1.61,0c.44-.18.44-.47,0-.65a2.47,2.47,0,0,0-1.61,0C117.85,112.77,117.85,113.06,118.3,113.24Zm9.54-.82a2.47,2.47,0,0,0,1.61,0c.44-.18.44-.47,0-.65a2.47,2.47,0,0,0-1.61,0C127.4,112,127.4,112.24,127.84,112.42ZM110.18,118a1.79,1.79,0,0,0-1.25,0c-.35.14-.35.36,0,.51a1.91,1.91,0,0,0,1.25,0C110.53,118.37,110.53,118.15,110.18,118Zm.93-1.84a1.91,1.91,0,0,0,1.25,0c.35-.14.35-.37,0-.51a1.91,1.91,0,0,0-1.25,0C110.76,115.8,110.76,116,111.11,116.17ZM122,113.81a1.91,1.91,0,0,0,1.25,0c.35-.14.35-.37,0-.51a1.91,1.91,0,0,0-1.25,0C121.67,113.44,121.67,113.67,122,113.81Zm2.42-2.13a1.94,1.94,0,0,0,1.26,0c.34-.14.34-.37,0-.51a1.94,1.94,0,0,0-1.26,0C124.1,111.31,124.1,111.54,124.44,111.68Zm1.14,4.53a2.47,2.47,0,0,0,1.61,0c.45-.18.45-.47,0-.65a2.47,2.47,0,0,0-1.61,0C125.14,115.74,125.14,116,125.58,116.21Zm-10,3.87c-.44.19-.44.48,0,.66a2.47,2.47,0,0,0,1.61,0c.44-.18.44-.47,0-.66A2.47,2.47,0,0,0,115.63,120.08Zm-3.73,2.84a2.34,2.34,0,0,0-1.61,0c-.44.18-.44.47,0,.65a2.47,2.47,0,0,0,1.61,0C112.35,123.39,112.35,123.1,111.9,122.92Zm5.94-4.51a1.94,1.94,0,0,0,1.26,0c.34-.14.34-.37,0-.51a1.94,1.94,0,0,0-1.26,0C117.5,118,117.5,118.27,117.84,118.41Zm3.69,1a1.91,1.91,0,0,0,1.25,0c.35-.14.35-.37,0-.51a1.91,1.91,0,0,0-1.25,0C121.18,119,121.18,119.26,121.53,119.4Zm-12.7,2.41a1.94,1.94,0,0,0-1.26,0c-.34.14-.34.37,0,.51a1.94,1.94,0,0,0,1.26,0C109.17,122.18,109.17,122,108.83,121.81Zm-2.19,2.78c.45-.18.45-.48,0-.66a2.47,2.47,0,0,0-1.61,0c-.44.18-.44.48,0,.66A2.47,2.47,0,0,0,106.64,124.59Zm-10,3.87a2.47,2.47,0,0,0-1.61,0c-.44.18-.44.47,0,.65a2.34,2.34,0,0,0,1.61,0C97.14,128.93,97.14,128.64,96.69,128.46Zm-5.34,2.83a2.44,2.44,0,0,0-1.6,0c-.45.18-.45.47,0,.66a2.44,2.44,0,0,0,1.6,0C91.8,131.76,91.8,131.47,91.35,131.29Zm7.2-4.51c.34-.14.34-.37,0-.51a1.91,1.91,0,0,0-1.25,0c-.35.14-.35.37,0,.51A1.91,1.91,0,0,0,98.55,126.78Zm2.43,1a1.91,1.91,0,0,0,1.25,0c.35-.14.35-.37,0-.51a1.91,1.91,0,0,0-1.25,0C100.63,127.4,100.63,127.63,101,127.77Zm-12.7,2.41a1.94,1.94,0,0,0-1.26,0c-.34.14-.34.37,0,.51a1.94,1.94,0,0,0,1.26,0C88.62,130.55,88.62,130.32,88.28,130.18Zm-2.92-2.12a2.34,2.34,0,0,0-1.61,0c-.45.18-.45.47,0,.65a2.47,2.47,0,0,0,1.61,0C85.8,128.53,85.8,128.24,85.36,128.06Zm10-4.53a2.47,2.47,0,0,0-1.61,0c-.44.18-.44.47,0,.65a2.47,2.47,0,0,0,1.61,0C95.75,124,95.75,123.71,95.31,123.53Zm-2.21,2.33a1.94,1.94,0,0,0-1.26,0c-.34.14-.34.37,0,.51a1.94,1.94,0,0,0,1.26,0C93.44,126.23,93.44,126,93.1,125.86Zm-3.69-1a1.91,1.91,0,0,0-1.25,0c-.35.14-.35.37,0,.51a1.91,1.91,0,0,0,1.25,0C89.76,125.24,89.76,125,89.41,124.87Zm14-2.92a1.94,1.94,0,0,0-1.26,0c-.34.14-.34.37,0,.51a1.94,1.94,0,0,0,1.26,0C103.71,122.32,103.71,122.09,103.37,122Zm14.29,1.76c.44-.18.44-.48,0-.66a2.47,2.47,0,0,0-1.61,0c-.45.18-.45.48,0,.66A2.47,2.47,0,0,0,117.66,123.71ZM105.72,129c-.45.18-.45.47,0,.65a2.47,2.47,0,0,0,1.61,0c.44-.18.44-.47,0-.65A2.34,2.34,0,0,0,105.72,129Zm-7.33,1.79a2.47,2.47,0,0,0,1.61,0c.44-.18.44-.48,0-.66a2.47,2.47,0,0,0-1.61,0C98,130.28,98,130.58,98.39,130.76Zm.8,3.73a2.32,2.32,0,0,0-1.6,0c-.45.18-.45.47,0,.65a2.44,2.44,0,0,0,1.6,0C99.64,135,99.64,134.67,99.19,134.49Zm12.5-8.2c-.35.14-.35.37,0,.51a1.91,1.91,0,0,0,1.25,0c.35-.14.35-.37,0-.51A1.91,1.91,0,0,0,111.69,126.29Zm-4.5.88a1.91,1.91,0,0,0-1.25,0c-.35.15-.35.37,0,.51a1.79,1.79,0,0,0,1.25,0C107.53,127.54,107.53,127.32,107.19,127.17Zm-5.79,4.45a1.91,1.91,0,0,0-1.25,0c-.35.14-.35.37,0,.51a1.91,1.91,0,0,0,1.25,0C101.75,132,101.75,131.76,101.4,131.62Zm1.66,2.67a1.94,1.94,0,0,0-1.26,0c-.34.14-.34.37,0,.51a1.94,1.94,0,0,0,1.26,0C103.4,134.66,103.4,134.43,103.06,134.29Zm4.23-.56c.44-.18.44-.48,0-.66a2.47,2.47,0,0,0-1.61,0c-.45.18-.45.48,0,.66A2.47,2.47,0,0,0,107.29,133.73Zm9.5-4.06a2.47,2.47,0,0,0,1.61,0c.44-.18.44-.47,0-.65a2.47,2.47,0,0,0-1.61,0C116.35,129.2,116.35,129.49,116.79,129.67Zm6.95-2.83c-.45.18-.45.48,0,.66a2.44,2.44,0,0,0,1.6,0c.45-.18.45-.48,0-.66A2.44,2.44,0,0,0,123.74,126.84Zm-12.32,3.59a1.91,1.91,0,0,0,1.25,0c.35-.14.35-.37,0-.51a1.91,1.91,0,0,0-1.25,0C111.07,130.06,111.07,130.29,111.42,130.43Zm2.43,1.5a1.91,1.91,0,0,0,1.25,0c.35-.14.35-.37,0-.51a1.91,1.91,0,0,0-1.25,0C113.51,131.56,113.51,131.79,113.85,131.93Zm7.17-5.69a1.91,1.91,0,0,0,1.25,0c.34-.14.34-.37,0-.51a1.91,1.91,0,0,0-1.25,0C120.67,125.87,120.67,126.1,121,126.24Zm6.82-1.54a2.47,2.47,0,0,0-1.61,0c-.45.18-.45.47,0,.65a2.34,2.34,0,0,0,1.61,0C128.28,125.17,128.28,124.88,127.84,124.7Zm9.5-4.06c-.45.18-.45.48,0,.66a2.47,2.47,0,0,0,1.61,0c.44-.18.44-.48,0-.66A2.47,2.47,0,0,0,137.34,120.64Zm6.94-1.52a2.47,2.47,0,0,0,1.61,0c.45-.18.45-.47,0-.65a2.47,2.47,0,0,0-1.61,0C143.84,118.65,143.84,118.94,144.28,119.12ZM132,121.54c-.35.15-.35.37,0,.52a1.91,1.91,0,0,0,1.25,0c.35-.15.35-.37,0-.52A1.91,1.91,0,0,0,132,121.54Zm2.43,2a1.91,1.91,0,0,0,1.25,0c.35-.14.35-.37,0-.51a1.91,1.91,0,0,0-1.25,0C134.05,123.19,134.05,123.42,134.4,123.56Zm7.16-5.69a1.94,1.94,0,0,0,1.26,0c.34-.14.34-.37,0-.51a1.94,1.94,0,0,0-1.26,0C141.22,117.5,141.22,117.73,141.56,117.87Zm-9.86-2.11a1.79,1.79,0,0,0,1.25,0c.34-.14.34-.36,0-.51a1.91,1.91,0,0,0-1.25,0C131.35,115.4,131.35,115.62,131.7,115.76Zm4.65.92a2.47,2.47,0,0,0,1.61,0c.44-.18.44-.48,0-.66a2.47,2.47,0,0,0-1.61,0C135.9,116.2,135.9,116.5,136.35,116.68Zm-9.51,4c.45-.18.45-.47,0-.65a2.44,2.44,0,0,0-1.6,0c-.45.18-.45.47,0,.65A2.32,2.32,0,0,0,126.84,120.73Zm4.12-.9a1.91,1.91,0,0,0,1.25,0c.35-.14.35-.37,0-.51a1.91,1.91,0,0,0-1.25,0C130.62,119.46,130.62,119.69,131,119.83Zm-2.43-2c-.35.14-.35.37,0,.51a1.91,1.91,0,0,0,1.25,0c.35-.14.35-.37,0-.51A1.91,1.91,0,0,0,128.53,117.82Zm-7.16,6.2a1.91,1.91,0,0,0,1.25,0c.34-.14.34-.37,0-.51a1.91,1.91,0,0,0-1.25,0C121,123.65,121,123.88,121.37,124Zm2.55,5.1c-.45.19-.45.48,0,.66a2.47,2.47,0,0,0,1.61,0c.44-.18.44-.47,0-.66A2.47,2.47,0,0,0,123.92,129.12Zm14.51-4.21c-.45.19-.45.48,0,.66a2.47,2.47,0,0,0,1.61,0c.44-.18.44-.47,0-.66A2.47,2.47,0,0,0,138.43,124.91Zm2.79-2.33a2.34,2.34,0,0,0,1.61,0c.44-.18.44-.47,0-.65a2.47,2.47,0,0,0-1.61,0C140.77,122.11,140.77,122.4,141.22,122.58Zm-8.11,4.77a1.94,1.94,0,0,0-1.26,0c-.34.14-.34.37,0,.51a1.94,1.94,0,0,0,1.26,0C133.45,127.72,133.45,127.49,133.11,127.35Zm.92-1.84a1.91,1.91,0,0,0,1.25,0c.35-.14.35-.37,0-.51a1.91,1.91,0,0,0-1.25,0C133.68,125.14,133.68,125.37,134,125.51Zm10.91-2.87c-.35.15-.35.37,0,.51a1.79,1.79,0,0,0,1.25,0c.35-.14.35-.36,0-.51A1.91,1.91,0,0,0,144.94,122.64Zm4.08-1.78a1.91,1.91,0,0,0,1.25,0c.35-.14.35-.37,0-.51a1.91,1.91,0,0,0-1.25,0C148.67,120.49,148.67,120.72,149,120.86Zm-.52,4.69a2.47,2.47,0,0,0,1.61,0c.45-.18.45-.47,0-.65a2.47,2.47,0,0,0-1.61,0C148.06,125.08,148.06,125.37,148.5,125.55Zm3.94-1.45a2.47,2.47,0,0,0,1.61,0c.44-.18.44-.48,0-.66a2.47,2.47,0,0,0-1.61,0C152,123.62,152,123.92,152.44,124.1Zm-13.89,5.33c-.44.18-.44.47,0,.65a2.47,2.47,0,0,0,1.61,0c.45-.18.45-.47,0-.65A2.47,2.47,0,0,0,138.55,129.43Zm-3.73,3.48c.45-.18.45-.47,0-.65a2.44,2.44,0,0,0-1.6,0c-.45.18-.45.47,0,.65A2.44,2.44,0,0,0,134.82,132.91Zm6-5.16a1.91,1.91,0,0,0,1.25,0c.34-.14.34-.37,0-.51a1.91,1.91,0,0,0-1.25,0C140.42,127.38,140.42,127.61,140.77,127.75Zm4.93.48a1.91,1.91,0,0,0-1.25,0c-.35.14-.35.37,0,.51a1.91,1.91,0,0,0,1.25,0C146.05,128.6,146.05,128.37,145.7,128.23Zm-15.2,3.43a1.91,1.91,0,0,0,1.25,0c.34-.14.34-.37,0-.51a1.91,1.91,0,0,0-1.25,0C130.15,131.29,130.15,131.52,130.5,131.66Zm-.94,1.61a2.44,2.44,0,0,0-1.6,0c-.45.18-.45.48,0,.66a2.44,2.44,0,0,0,1.6,0C130,133.75,130,133.45,129.56,133.27Zm-10,5.19c.45-.18.45-.48,0-.66a2.44,2.44,0,0,0-1.6,0c-.45.18-.45.48,0,.66A2.44,2.44,0,0,0,119.61,138.46Zm-5.33,2.17a2.47,2.47,0,0,0-1.61,0c-.45.18-.45.48,0,.66a2.47,2.47,0,0,0,1.61,0C114.72,141.11,114.72,140.81,114.28,140.63Zm5.94-5c-.35.14-.35.37,0,.51a1.91,1.91,0,0,0,1.25,0c.35-.14.35-.37,0-.51A1.91,1.91,0,0,0,120.22,135.61Zm4.93,1.5c.35-.14.35-.37,0-.51a1.91,1.91,0,0,0-1.25,0c-.34.14-.34.37,0,.51A1.91,1.91,0,0,0,125.15,137.11Zm-14,2.41a1.91,1.91,0,0,0-1.25,0c-.35.14-.35.37,0,.51a1.91,1.91,0,0,0,1.25,0C111.55,139.89,111.55,139.66,111.2,139.52Zm-2.92-2.12a2.47,2.47,0,0,0-1.61,0c-.44.18-.44.47,0,.65a2.47,2.47,0,0,0,1.61,0C108.72,137.87,108.72,137.58,108.28,137.4Zm10-4.53a2.47,2.47,0,0,0-1.61,0c-.44.18-.44.47,0,.65a2.34,2.34,0,0,0,1.61,0C118.67,133.34,118.67,133.05,118.23,132.87ZM116,135.2a1.91,1.91,0,0,0-1.25,0c-.35.14-.35.37,0,.51a1.91,1.91,0,0,0,1.25,0C116.36,135.57,116.36,135.34,116,135.2Zm-3.69-1a1.91,1.91,0,0,0-1.25,0c-.34.14-.34.37,0,.51a1.91,1.91,0,0,0,1.25,0C112.68,134.58,112.68,134.35,112.33,134.21Zm14-2.92a1.91,1.91,0,0,0-1.25,0c-.35.14-.35.37,0,.51a1.91,1.91,0,0,0,1.25,0C126.63,131.66,126.63,131.43,126.29,131.29Zm13.54,1.46c.44-.19.44-.48,0-.66a2.47,2.47,0,0,0-1.61,0c-.44.18-.44.47,0,.66A2.47,2.47,0,0,0,139.83,132.75ZM129.5,138a2.47,2.47,0,0,0-1.61,0c-.44.18-.44.48,0,.66a2.47,2.47,0,0,0,1.61,0C129.94,138.48,129.94,138.18,129.5,138Zm-7.33,1.14a2.47,2.47,0,0,0-1.61,0c-.44.18-.44.47,0,.66a2.47,2.47,0,0,0,1.61,0C122.62,139.61,122.62,139.32,122.17,139.14Zm12.94-3.82a1.91,1.91,0,0,0-1.25,0c-.35.14-.35.37,0,.51a1.91,1.91,0,0,0,1.25,0C135.46,135.69,135.46,135.46,135.11,135.32Zm-7,1.4a1.91,1.91,0,0,0,1.25,0c.35-.14.35-.37,0-.51a1.91,1.91,0,0,0-1.25,0C127.76,136.35,127.76,136.58,128.11,136.72Zm-4.54,3.94a1.91,1.91,0,0,0-1.25,0c-.34.14-.34.37,0,.51a1.91,1.91,0,0,0,1.25,0C123.92,141,123.92,140.8,123.57,140.66Zm2.35,4.21a1.82,1.82,0,0,0-1.26,0c-.34.14-.34.36,0,.51a1.94,1.94,0,0,0,1.26,0C126.26,145.23,126.26,145,125.92,144.87Zm3.54-2.76a2.47,2.47,0,0,0-1.61,0c-.44.18-.44.47,0,.66a2.47,2.47,0,0,0,1.61,0C129.9,142.58,129.9,142.29,129.46,142.11Zm-8.9,1.08a2.47,2.47,0,0,0-1.61,0c-.44.19-.44.48,0,.66a2.47,2.47,0,0,0,1.61,0C121,143.67,121,143.38,120.56,143.19Zm20-5.14a2.47,2.47,0,0,0-1.61,0c-.44.19-.44.48,0,.66a2.47,2.47,0,0,0,1.61,0C141,138.53,141,138.24,140.57,138.05Zm5.34-1.52a2.34,2.34,0,0,0,1.61,0c.44-.18.44-.47,0-.65a2.47,2.47,0,0,0-1.61,0C145.46,136.06,145.46,136.35,145.91,136.53ZM134.84,139a1.79,1.79,0,0,0-1.25,0c-.34.14-.34.37,0,.51a1.91,1.91,0,0,0,1.25,0C135.19,139.33,135.19,139.1,134.84,139Zm2.44,1.5a1.94,1.94,0,0,0-1.26,0c-.34.14-.34.37,0,.51a1.94,1.94,0,0,0,1.26,0C137.62,140.83,137.62,140.6,137.28,140.46Zm5.91-5.18a1.91,1.91,0,0,0,1.25,0c.35-.14.35-.37,0-.51a1.91,1.91,0,0,0-1.25,0C142.84,134.91,142.84,135.14,143.19,135.28Zm6.82-1.54a2.34,2.34,0,0,0-1.61,0c-.44.18-.44.47,0,.65a2.47,2.47,0,0,0,1.61,0C150.45,134.21,150.45,133.92,150,133.74Zm9.5-4.06c-.44.18-.44.47,0,.66a2.47,2.47,0,0,0,1.61,0c.44-.19.44-.48,0-.66A2.47,2.47,0,0,0,159.51,129.68Zm7-1.52a2.47,2.47,0,0,0,1.61,0c.44-.18.44-.47,0-.66a2.47,2.47,0,0,0-1.61,0C166,127.69,166,128,166.46,128.16Zm-12.32,2.93a1.91,1.91,0,0,0,1.25,0c.35-.14.35-.37,0-.51a1.91,1.91,0,0,0-1.25,0C153.79,130.72,153.79,131,154.14,131.09Zm2.43,1.5a1.94,1.94,0,0,0,1.26,0c.34-.14.34-.37,0-.51a1.94,1.94,0,0,0-1.26,0C156.23,132.22,156.23,132.45,156.57,132.59Zm7.17-5.68a1.91,1.91,0,0,0,1.25,0c.34-.15.34-.37,0-.51a1.79,1.79,0,0,0-1.25,0C163.39,126.54,163.39,126.76,163.74,126.91Zm-5.22-1.19a2.47,2.47,0,0,0,1.61,0c.44-.19.44-.48,0-.66a2.47,2.47,0,0,0-1.61,0C158.08,125.24,158.08,125.53,158.52,125.72Zm-11.11,4.05a2.47,2.47,0,0,0,1.61,0c.44-.18.44-.47,0-.65a2.34,2.34,0,0,0-1.61,0C147,129.3,147,129.59,147.41,129.77Zm5.72-1.41c-.34.14-.34.37,0,.51a1.94,1.94,0,0,0,1.26,0c.34-.14.34-.37,0-.51A1.94,1.94,0,0,0,153.13,128.36Zm-2.43-1a1.91,1.91,0,0,0,1.25,0c.35-.14.35-.37,0-.51a1.91,1.91,0,0,0-1.25,0C150.36,127,150.36,127.23,150.7,127.37Zm6.52-3.17a1.91,1.91,0,0,0,1.25,0c.35-.14.35-.37,0-.51a1.91,1.91,0,0,0-1.25,0C156.87,123.83,156.87,124.06,157.22,124.2Zm-13.68,8.86a1.91,1.91,0,0,0,1.25,0c.35-.15.35-.37,0-.51a1.79,1.79,0,0,0-1.25,0C143.19,132.69,143.19,132.91,143.54,133.06Zm-97.82,9.19a2.49,2.49,0,0,0,1.66,0c.46-.19.46-.49,0-.68a2.62,2.62,0,0,0-1.66,0C45.26,141.76,45.26,142.06,45.72,142.25Zm16.69-4.36c.46-.19.46-.49,0-.68a2.65,2.65,0,0,0-1.67,0c-.46.19-.46.49,0,.68A2.52,2.52,0,0,0,62.41,137.89Zm2.89-3.77a2.52,2.52,0,0,0-1.67,0c-.46.19-.46.49,0,.68a2.52,2.52,0,0,0,1.67,0C65.76,134.61,65.76,134.31,65.3,134.12Zm8.22-.17a2.49,2.49,0,0,0,1.66,0c.46-.19.46-.49,0-.68a2.49,2.49,0,0,0-1.66,0C73.06,133.46,73.06,133.76,73.52,134Zm-18.29,5.78a2.06,2.06,0,0,0-1.3,0c-.36.15-.36.38,0,.53a1.93,1.93,0,0,0,1.3,0C55.59,140.11,55.59,139.88,55.23,139.73Zm2.25-1.9c.36-.14.36-.38,0-.52a1.91,1.91,0,0,0-1.29,0c-.36.14-.36.38,0,.52A1.91,1.91,0,0,0,57.48,137.83Zm11.3-3a2.06,2.06,0,0,0-1.3,0c-.35.15-.35.39,0,.53a1.93,1.93,0,0,0,1.3,0C69.14,135.25,69.14,135,68.78,134.86Zm2.51-2.2a1.91,1.91,0,0,0-1.29,0c-.36.14-.36.38,0,.53a2,2,0,0,0,1.29,0C71.65,133,71.65,132.8,71.29,132.66Zm1.55,4.54a2.49,2.49,0,0,0-1.66,0c-.46.18-.46.49,0,.67a2.49,2.49,0,0,0,1.66,0C73.3,137.69,73.3,137.38,72.84,137.2Zm-10.3,5.36c.46-.18.46-.49,0-.67a2.52,2.52,0,0,0-1.67,0c-.46.18-.46.49,0,.67A2.52,2.52,0,0,0,62.54,142.56ZM57,144.82a2.52,2.52,0,0,0-1.67,0c-.46.18-.46.49,0,.68a2.65,2.65,0,0,0,1.67,0C57.47,145.31,57.47,145,57,144.82Zm7.45-5.2a1.93,1.93,0,0,0-1.3,0c-.36.15-.36.38,0,.53a2.06,2.06,0,0,0,1.3,0C64.82,140,64.82,139.77,64.46,139.62Zm3.81,1a1.91,1.91,0,0,0-1.29,0c-.36.14-.36.38,0,.52a1.91,1.91,0,0,0,1.29,0C68.63,141,68.63,140.79,68.27,140.65Zm-14.45,3a1.91,1.91,0,0,0-1.29,0c-.36.15-.36.38,0,.53a2,2,0,0,0,1.29,0C54.18,144.05,54.18,143.82,53.82,143.67Zm-2.26,2.88c.46-.19.46-.49,0-.68a2.49,2.49,0,0,0-1.66,0c-.46.19-.46.49,0,.68A2.62,2.62,0,0,0,51.56,146.55Zm-8.38,1.74a2.06,2.06,0,0,0-1.3,0c-.36.15-.36.38,0,.53a1.93,1.93,0,0,0,1.3,0C43.54,148.67,43.54,148.44,43.18,148.29Zm3.82,1a1.93,1.93,0,0,0-1.3,0c-.36.14-.36.38,0,.53a2.06,2.06,0,0,0,1.3,0C47.35,149.7,47.35,149.46,47,149.32Zm-7.18-3.87a2.49,2.49,0,0,0-1.66,0c-.46.19-.46.49,0,.68a2.49,2.49,0,0,0,1.66,0C40.28,145.94,40.28,145.64,39.82,145.45Zm-2.29,2.42a1.91,1.91,0,0,0-1.29,0c-.36.14-.36.38,0,.53a2,2,0,0,0,1.29,0C37.89,148.25,37.89,148,37.53,147.87Zm-3.81-1a1.93,1.93,0,0,0-1.3,0c-.36.15-.36.38,0,.53a2.06,2.06,0,0,0,1.3,0C34.08,147.22,34.08,147,33.72,146.84Zm14.45-3a1.93,1.93,0,0,0-1.3,0c-.36.14-.36.38,0,.53a2.06,2.06,0,0,0,1.3,0C48.53,144.2,48.53,144,48.17,143.82ZM63,145.64c.46-.19.46-.49,0-.68a2.52,2.52,0,0,0-1.67,0c-.46.19-.46.49,0,.68A2.52,2.52,0,0,0,63,145.64Zm-4.89,2.67a1.91,1.91,0,0,0-1.29,0c-.36.14-.36.38,0,.53a2,2,0,0,0,1.29,0C58.44,148.69,58.44,148.45,58.08,148.31Zm-5.95.92a1.93,1.93,0,0,0-1.3,0c-.36.14-.36.38,0,.53a2.06,2.06,0,0,0,1.3,0C52.49,149.61,52.49,149.37,52.13,149.23Zm11.61,1.91a2.52,2.52,0,0,0-1.67,0c-.46.18-.46.49,0,.68a2.65,2.65,0,0,0,1.67,0C64.2,151.63,64.2,151.32,63.74,151.14Zm7.19-1.58c.46-.19.46-.49,0-.68a2.65,2.65,0,0,0-1.67,0c-.46.19-.46.49,0,.68A2.52,2.52,0,0,0,70.93,149.56Zm-3.19-1.82a1.91,1.91,0,0,0-1.29,0c-.36.14-.36.38,0,.52a1.91,1.91,0,0,0,1.29,0C68.1,148.12,68.1,147.88,67.74,147.74Zm5.77-1.08a2.65,2.65,0,0,0-1.67,0c-.46.19-.46.5,0,.68a2.52,2.52,0,0,0,1.67,0C74,147.16,74,146.85,73.51,146.66ZM85,143.14c.46-.18.46-.49,0-.68a2.65,2.65,0,0,0-1.67,0c-.46.19-.46.5,0,.68A2.52,2.52,0,0,0,85,143.14Zm7.19-2.25c.46-.19.46-.49,0-.68a2.52,2.52,0,0,0-1.67,0c-.46.19-.46.49,0,.68A2.52,2.52,0,0,0,92.21,140.89ZM79.09,143.4a1.93,1.93,0,0,0-1.3,0c-.36.14-.36.38,0,.53a2.06,2.06,0,0,0,1.3,0C79.44,143.78,79.44,143.54,79.09,143.4ZM81.6,145a2,2,0,0,0-1.29,0c-.36.15-.36.39,0,.53a1.91,1.91,0,0,0,1.29,0C82,145.34,82,145.1,81.6,145ZM89,139.59c.36-.14.36-.38,0-.53a2,2,0,0,0-1.29,0c-.36.15-.36.39,0,.53A1.91,1.91,0,0,0,89,139.59ZM78.8,137.41c.36-.14.36-.38,0-.53a2,2,0,0,0-1.29,0c-.36.15-.36.39,0,.53A1.91,1.91,0,0,0,78.8,137.41Zm5.19,1c.46-.19.46-.49,0-.68a2.52,2.52,0,0,0-1.67,0c-.46.19-.46.49,0,.68A2.52,2.52,0,0,0,84,138.36Zm-13.17,3.52c-.46.19-.46.49,0,.68a2.49,2.49,0,0,0,1.66,0c.46-.19.46-.49,0-.68A2.49,2.49,0,0,0,70.82,141.88ZM78,141.1a1.91,1.91,0,0,0-1.29,0c-.36.14-.36.38,0,.53a2,2,0,0,0,1.29,0C78.4,141.48,78.4,141.24,78,141.1Zm-2.52-1.56a2,2,0,0,0-1.29,0c-.36.15-.36.38,0,.53a1.91,1.91,0,0,0,1.29,0C75.88,139.92,75.88,139.69,75.52,139.54Zm-7.41,5.89a2.06,2.06,0,0,0-1.3,0c-.36.15-.36.38,0,.53a1.93,1.93,0,0,0,1.3,0C68.46,145.81,68.46,145.58,68.11,145.43Zm3,5.82a2.52,2.52,0,0,0-1.67,0c-.46.18-.46.49,0,.68a2.65,2.65,0,0,0,1.67,0C71.58,151.74,71.58,151.43,71.12,151.25Zm15-3.68c.46-.19.46-.5,0-.68a2.49,2.49,0,0,0-1.66,0c-.46.18-.46.49,0,.68A2.62,2.62,0,0,0,86.14,147.57ZM89,143.8a2.49,2.49,0,0,0-1.66,0c-.46.18-.46.49,0,.67a2.49,2.49,0,0,0,1.66,0C89.49,144.29,89.49,144,89,143.8ZM79,149.41a1.93,1.93,0,0,0-1.3,0c-.36.14-.36.38,0,.52a1.93,1.93,0,0,0,1.3,0C79.32,149.79,79.32,149.55,79,149.41ZM81.22,147a1.93,1.93,0,0,0-1.3,0c-.35.15-.35.38,0,.53a2.06,2.06,0,0,0,1.3,0C81.58,147.36,81.58,147.13,81.22,147Zm11.3-2.44a1.93,1.93,0,0,0-1.3,0c-.36.14-.36.38,0,.53a2.06,2.06,0,0,0,1.3,0C92.88,144.92,92.88,144.68,92.52,144.54Zm4.22-1.85c.36-.15.36-.38,0-.53a1.91,1.91,0,0,0-1.29,0c-.36.15-.36.38,0,.53A1.91,1.91,0,0,0,96.74,142.69Zm-.16,4.18a2.52,2.52,0,0,0-1.67,0c-.46.19-.46.49,0,.68a2.52,2.52,0,0,0,1.67,0C97,147.36,97,147.06,96.58,146.87Zm4.07-.83c.46-.19.46-.49,0-.68a2.49,2.49,0,0,0-1.66,0c-.46.19-.46.49,0,.68A2.49,2.49,0,0,0,100.65,146Zm-14.38,5.52a2.49,2.49,0,0,0-1.66,0c-.46.19-.46.49,0,.68a2.49,2.49,0,0,0,1.66,0C86.73,152.05,86.73,151.75,86.27,151.56Zm1.93-2.27a2.06,2.06,0,0,0-1.3,0c-.36.15-.36.39,0,.53a1.93,1.93,0,0,0,1.3,0C88.55,149.68,88.55,149.44,88.2,149.29Zm3.81,1a1.91,1.91,0,0,0-1.29,0c-.36.15-.36.38,0,.53a2,2,0,0,0,1.29,0C92.37,150.7,92.37,150.47,92,150.32Zm16,1.5a2.52,2.52,0,0,0-1.67,0c-.46.19-.46.49,0,.68a2.52,2.52,0,0,0,1.67,0C108.44,152.31,108.44,152,108,151.82Zm7.19-1.57c.46-.19.46-.49,0-.68a2.52,2.52,0,0,0-1.67,0c-.46.19-.46.49,0,.68A2.52,2.52,0,0,0,115.17,150.25Zm-13.12,2.51a1.93,1.93,0,0,0-1.3,0c-.36.14-.36.38,0,.52a1.93,1.93,0,0,0,1.3,0C102.41,153.14,102.41,152.9,102.05,152.76Zm2.52,1.55a1.93,1.93,0,0,0-1.3,0c-.36.15-.36.38,0,.53a1.93,1.93,0,0,0,1.3,0C104.92,154.69,104.92,154.46,104.57,154.31ZM112,149c.36-.15.36-.38,0-.53a1.91,1.91,0,0,0-1.29,0c-.36.15-.36.38,0,.53A1.91,1.91,0,0,0,112,149Zm-5-1.23c.46-.19.46-.49,0-.68a2.52,2.52,0,0,0-1.67,0c-.46.19-.46.49,0,.68A2.65,2.65,0,0,0,107,147.72Zm-11.51,3.52a2.49,2.49,0,0,0-1.66,0c-.46.19-.46.49,0,.68a2.62,2.62,0,0,0,1.66,0C95.9,151.73,95.9,151.43,95.44,151.24Zm5.56-.79a2,2,0,0,0-1.29,0c-.36.15-.36.39,0,.53a1.91,1.91,0,0,0,1.29,0C101.36,150.84,101.36,150.6,101,150.45Zm-2.51-1.55a1.93,1.93,0,0,0-1.3,0c-.36.15-.36.38,0,.53a2.06,2.06,0,0,0,1.3,0C98.84,149.28,98.84,149.05,98.49,148.9Zm6.74-2.75c.36-.15.36-.38,0-.53a1.91,1.91,0,0,0-1.29,0c-.36.15-.36.38,0,.53A1.91,1.91,0,0,0,105.23,146.15Zm49.51-4a2.53,2.53,0,0,0,1.63,0c.45-.18.45-.48,0-.67a2.53,2.53,0,0,0-1.63,0C154.29,141.67,154.29,142,154.74,142.15Zm16.34-4.27c.45-.18.45-.48,0-.66a2.4,2.4,0,0,0-1.63,0c-.45.18-.45.48,0,.66A2.4,2.4,0,0,0,171.08,137.88Zm2.83-3.69a2.53,2.53,0,0,0-1.63,0c-.45.18-.45.48,0,.66a2.4,2.4,0,0,0,1.63,0C174.36,134.67,174.36,134.37,173.91,134.19Zm8-.17a2.4,2.4,0,0,0,1.63,0c.45-.18.45-.48,0-.66a2.53,2.53,0,0,0-1.63,0C181.5,133.54,181.5,133.84,182,134Zm-17.9,5.66a2,2,0,0,0-1.27,0c-.35.15-.35.38,0,.52a2,2,0,0,0,1.27,0C164.4,140.06,164.4,139.83,164.05,139.68Zm2.21-1.86c.35-.14.35-.37,0-.51a1.85,1.85,0,0,0-1.27,0c-.35.14-.35.37,0,.51A1.85,1.85,0,0,0,166.26,137.82Zm11.06-2.9a1.85,1.85,0,0,0-1.27,0c-.35.14-.35.37,0,.51a1.85,1.85,0,0,0,1.27,0C177.67,135.29,177.67,135.06,177.32,134.92Zm2.46-2.16a1.85,1.85,0,0,0-1.27,0c-.35.14-.35.37,0,.51a1.85,1.85,0,0,0,1.27,0C180.13,133.13,180.13,132.9,179.78,132.76Zm1.51,4.44a2.53,2.53,0,0,0-1.63,0c-.45.18-.45.48,0,.66a2.4,2.4,0,0,0,1.63,0C181.74,137.68,181.74,137.38,181.29,137.2Zm-10.08,5.26c.45-.19.45-.49,0-.67a2.53,2.53,0,0,0-1.63,0c-.45.18-.45.48,0,.67A2.53,2.53,0,0,0,171.21,142.46Zm-5.42,2.2a2.53,2.53,0,0,0-1.63,0c-.45.18-.45.48,0,.67a2.53,2.53,0,0,0,1.63,0C166.24,145.14,166.24,144.84,165.79,144.66Zm7.3-5.09a2,2,0,0,0-1.27,0c-.35.15-.35.38,0,.52a2,2,0,0,0,1.27,0C173.44,140,173.44,139.72,173.09,139.57Zm3.73,1a1.85,1.85,0,0,0-1.27,0c-.35.14-.35.37,0,.51a1.85,1.85,0,0,0,1.27,0C177.17,141,177.17,140.72,176.82,140.58Zm-14.14,3a1.85,1.85,0,0,0-1.27,0c-.35.14-.35.37,0,.51a1.85,1.85,0,0,0,1.27,0C163,143.91,163,143.68,162.68,143.54Zm-2.22,2.81c.45-.18.45-.48,0-.66a2.53,2.53,0,0,0-1.63,0c-.45.18-.45.48,0,.66A2.4,2.4,0,0,0,160.46,146.35Zm-10.08,3.93a2.53,2.53,0,0,0-1.63,0c-.45.18-.45.48,0,.66a2.4,2.4,0,0,0,1.63,0C150.83,150.76,150.83,150.46,150.38,150.28ZM145,153.15a2.53,2.53,0,0,0-1.63,0c-.45.18-.45.48,0,.66a2.4,2.4,0,0,0,1.63,0C145.41,153.63,145.41,153.33,145,153.15Zm7.3-5.09a2,2,0,0,0-1.27,0c-.35.14-.35.38,0,.52a2,2,0,0,0,1.27,0C152.61,148.44,152.61,148.2,152.26,148.06Zm3.73,1a1.85,1.85,0,0,0-1.27,0c-.35.14-.35.37,0,.51a1.85,1.85,0,0,0,1.27,0C156.34,149.44,156.34,149.21,156,149.07Zm-14.14,3a1.85,1.85,0,0,0-1.27,0c-.35.14-.35.37,0,.51a1.85,1.85,0,0,0,1.27,0C142.2,152.4,142.2,152.17,141.85,152Zm-4.59-2.16c-.46.18-.46.48,0,.66a2.4,2.4,0,0,0,1.63,0c.45-.18.45-.48,0-.66A2.53,2.53,0,0,0,137.26,149.87ZM149,145.28a2.53,2.53,0,0,0-1.63,0c-.45.18-.45.48,0,.66a2.4,2.4,0,0,0,1.63,0C149.42,145.76,149.42,145.46,149,145.28Zm-2.24,2.37a1.85,1.85,0,0,0-1.27,0c-.35.14-.35.37,0,.51a1.85,1.85,0,0,0,1.27,0C147.08,148,147.08,147.79,146.73,147.65Zm-3.73-1a2,2,0,0,0-1.27,0c-.35.14-.35.38,0,.52a2,2,0,0,0,1.27,0C143.35,147,143.35,146.78,143,146.64Zm14.14-3a2,2,0,0,0-1.27,0c-.35.14-.35.38,0,.52a2,2,0,0,0,1.27,0C157.49,144.06,157.49,143.82,157.14,143.68Zm14.49,1.78c.45-.18.45-.48,0-.66a2.53,2.53,0,0,0-1.63,0c-.45.18-.45.48,0,.66A2.4,2.4,0,0,0,171.63,145.46Zm-10.47,5.33a2.53,2.53,0,0,0-1.63,0c-.45.19-.45.48,0,.67a2.53,2.53,0,0,0,1.63,0C161.61,151.27,161.61,151,161.16,150.79ZM153.73,152a2.4,2.4,0,0,0-1.63,0c-.45.18-.45.48,0,.66a2.53,2.53,0,0,0,1.63,0C154.18,152.43,154.18,152.13,153.73,152Zm13.12-3.87a1.85,1.85,0,0,0-1.27,0c-.35.14-.35.37,0,.51a1.85,1.85,0,0,0,1.27,0C167.2,148.45,167.2,148.22,166.85,148.08Zm-7.1.9c-.35.14-.35.37,0,.51a1.85,1.85,0,0,0,1.27,0c.35-.14.35-.37,0-.51A1.85,1.85,0,0,0,159.75,149Zm-4.6,4.5a2,2,0,0,0-1.27,0c-.35.15-.35.38,0,.52a2,2,0,0,0,1.27,0C155.5,153.86,155.5,153.63,155.15,153.48Zm17.23-2.63a2.4,2.4,0,0,0-1.63,0c-.45.18-.45.48,0,.66a2.53,2.53,0,0,0,1.63,0C172.83,151.33,172.83,151,172.38,150.85Zm7-1.54c.45-.19.45-.49,0-.67a2.53,2.53,0,0,0-1.63,0c-.45.18-.45.48,0,.67A2.53,2.53,0,0,0,179.42,149.31Zm-12.84,2.45a2,2,0,0,0-1.27,0c-.36.14-.36.37,0,.52a2,2,0,0,0,1.27,0C166.93,152.13,166.93,151.9,166.58,151.76Zm2.46,1.52a2,2,0,0,0-1.27,0c-.35.15-.35.38,0,.52a2,2,0,0,0,1.27,0C169.39,153.66,169.39,153.43,169,153.28Zm7.26-5.76a1.85,1.85,0,0,0-1.27,0c-.35.14-.35.37,0,.51a1.85,1.85,0,0,0,1.27,0C176.65,147.89,176.65,147.66,176.3,147.52Zm5.65-1.05a2.4,2.4,0,0,0-1.63,0c-.45.18-.45.48,0,.66a2.4,2.4,0,0,0,1.63,0C182.4,147,182.4,146.65,182,146.47ZM193.21,143c.45-.18.45-.48,0-.66a2.4,2.4,0,0,0-1.63,0c-.45.18-.45.48,0,.66A2.53,2.53,0,0,0,193.21,143Zm7-2.2c.45-.19.45-.49,0-.67a2.53,2.53,0,0,0-1.63,0c-.45.18-.45.48,0,.67A2.53,2.53,0,0,0,200.25,140.82Zm-12.84,2.45a2,2,0,0,0-1.27,0c-.36.14-.36.38,0,.52a2,2,0,0,0,1.27,0C187.76,143.65,187.76,143.41,187.41,143.27Zm2.46,1.52a2,2,0,0,0-1.27,0c-.35.15-.35.38,0,.52a2,2,0,0,0,1.27,0C190.22,145.17,190.22,144.94,189.87,144.79Zm7.26-5.25c.35-.14.35-.37,0-.51a1.85,1.85,0,0,0-1.27,0c-.35.14-.35.37,0,.51A1.85,1.85,0,0,0,197.13,139.54Zm-10-2.13c.35-.14.35-.37,0-.52a2,2,0,0,0-1.27,0c-.35.15-.35.38,0,.52A2,2,0,0,0,187.13,137.41Zm5.08.93c.45-.18.45-.48,0-.67a2.56,2.56,0,0,0-1.64,0c-.45.19-.45.49,0,.67A2.56,2.56,0,0,0,192.21,138.34Zm-12.9,3.44c-.45.19-.45.49,0,.67a2.53,2.53,0,0,0,1.63,0c.45-.18.45-.48,0-.67A2.53,2.53,0,0,0,179.31,141.78Zm7.07-.76a1.94,1.94,0,0,0-1.26,0c-.36.14-.36.37,0,.52a1.94,1.94,0,0,0,1.26,0C186.74,141.39,186.74,141.16,186.38,141Zm-2.46-1.52a1.85,1.85,0,0,0-1.27,0c-.35.14-.35.37,0,.51a1.85,1.85,0,0,0,1.27,0C184.27,139.87,184.27,139.64,183.92,139.5Zm-7.26,5.76a2,2,0,0,0-1.27,0c-.35.14-.35.38,0,.52a2,2,0,0,0,1.27,0C177,145.64,177,145.4,176.66,145.26Zm3,5.69a2.53,2.53,0,0,0-1.63,0c-.45.19-.45.49,0,.67a2.53,2.53,0,0,0,1.63,0C180.06,151.44,180.06,151.14,179.61,151Zm14.7-4.26a2.4,2.4,0,0,0-1.63,0c-.45.18-.45.48,0,.66a2.53,2.53,0,0,0,1.63,0C194.76,147.17,194.76,146.87,194.31,146.69Zm2.83-3a2.53,2.53,0,0,0-1.63,0c-.45.18-.45.48,0,.66a2.4,2.4,0,0,0,1.63,0C197.59,144.14,197.59,143.84,197.14,143.66Zm-9.85,5.49a2,2,0,0,0-1.27,0c-.35.15-.35.38,0,.52a2,2,0,0,0,1.27,0C187.64,149.53,187.64,149.3,187.29,149.15Zm2.21-2.37a1.85,1.85,0,0,0-1.27,0c-.35.14-.35.37,0,.51a1.85,1.85,0,0,0,1.27,0C189.85,147.15,189.85,146.92,189.5,146.78Zm11.05-2.39a1.82,1.82,0,0,0-1.26,0c-.36.14-.36.37,0,.51a1.82,1.82,0,0,0,1.26,0C200.91,144.76,200.91,144.53,200.55,144.39Zm4.14-1.81c.35-.15.35-.38,0-.52a2,2,0,0,0-1.27,0c-.35.14-.35.37,0,.52A2,2,0,0,0,204.69,142.58Zm-.16,4.09a2.53,2.53,0,0,0-1.63,0c-.45.18-.45.48,0,.66a2.4,2.4,0,0,0,1.63,0C205,147.15,205,146.85,204.53,146.67Zm4-1.48a2.56,2.56,0,0,0-1.64,0c-.45.19-.45.48,0,.67a2.56,2.56,0,0,0,1.64,0C209,145.67,209,145.38,208.52,145.19ZM196.32,149a2,2,0,0,0-1.27,0c-.35.14-.35.38,0,.52a2,2,0,0,0,1.27,0C196.67,149.42,196.67,149.18,196.32,149Zm3.74,1a1.85,1.85,0,0,0-1.27,0c-.35.14-.35.37,0,.51a1.85,1.85,0,0,0,1.27,0C200.41,150.42,200.41,150.19,200.06,150.05Zm19.55-1.86a1.85,1.85,0,0,0-1.27,0c-.35.14-.35.37,0,.52a2,2,0,0,0,1.27,0C220,148.56,220,148.33,219.61,148.19Zm-4.93-1.36a2.53,2.53,0,0,0-1.63,0c-.45.19-.45.49,0,.67a2.53,2.53,0,0,0,1.63,0C215.13,147.32,215.13,147,214.68,146.83Zm-8.28,1.83a1.85,1.85,0,0,0-1.27,0c-.35.14-.35.37,0,.51a1.85,1.85,0,0,0,1.27,0C206.75,149,206.75,148.8,206.4,148.66Zm6.6-3.21a1.85,1.85,0,0,0-1.27,0c-.35.14-.35.37,0,.51a1.85,1.85,0,0,0,1.27,0C213.35,145.82,213.35,145.59,213,145.45Zm-92.43,10.41a2.67,2.67,0,0,0-1.72,0c-.47.2-.47.51,0,.7a2.54,2.54,0,0,0,1.72,0C121.05,156.37,121.05,156.06,120.57,155.86Zm10.2-.87a2.54,2.54,0,0,0-1.72,0c-.47.19-.47.5,0,.7a2.67,2.67,0,0,0,1.72,0C131.25,155.49,131.25,155.18,130.77,155Zm-6.6,1.64a2.05,2.05,0,0,0-1.34,0c-.37.15-.37.39,0,.54a2.05,2.05,0,0,0,1.34,0C124.54,157,124.54,156.78,124.17,156.63Zm2.59-2.28a2.05,2.05,0,0,0-1.34,0c-.37.15-.37.4,0,.55a2.05,2.05,0,0,0,1.34,0C127.13,154.75,127.13,154.5,126.76,154.35Zm100.09-6.48a2,2,0,0,1-1.85,1.24,2,2,0,0,1-.75-.15L178.2,130.2l-47.9,19.52,9.77,4a2,2,0,0,1-.75,3.86,2.06,2.06,0,0,1-.76-.15L125,151.88l-13.56,5.53a2.06,2.06,0,0,1-.76.15,2,2,0,0,1-.75-3.86l9.77-4L71.8,130.2,25.75,149a2,2,0,0,1-.75.15,2,2,0,0,1-.75-3.85l46.8-19.08,53.2-21.68a2,2,0,0,1,1.5,0L179,126.18l46.8,19.08A2,2,0,0,1,226.85,147.87ZM172.9,128,125,108.52,77.1,128,125,147.56Z"/></svg>