<svg id="Layer_1" data-name="Layer 1" xmlns="http://www.w3.org/2000/svg" viewBox="0 0 250 250"><title>Artboard 1 copy 3</title><path d="M178.93,124.81a2,2,0,0,0-2-2H161.62V50a2,2,0,0,0-2-2H90.38a2,2,0,0,0-2,2v72.81H73.07a2,2,0,0,0-2,2v15s0,.08,0,.13,0,.08,0,.13v60a2,2,0,0,0,2,2H176.93a2,2,0,0,0,2-2V140c0-.05,0-.09,0-.13s0-.09,0-.13ZM88.38,198H75.07V187H88.38Zm0-15H75.07v-11H88.38Zm0-15H75.07v-11H88.38Zm0-15.09H75.07V142H88.38Zm0-15.22H75.07v-11H88.38ZM109.69,52h30.62V63H109.69Zm0,40.88v-11h30.62v11H109.69Zm30.62,19v11H109.69v-11h30.62ZM92.38,52h13.31V63H92.38Zm0,15H123v11H92.38Zm0,15h13.31v11H92.38Zm0,15H123v11H92.38Zm0,15h13.31v11H92.38Zm0,15H123v11H92.38ZM123,198H92.38V187H123Zm-4.23-21.06a7.06,7.06,0,0,0,2.54,5.9H121s-10.26-3.42-10.26-13.88A15.48,15.48,0,0,1,113,161s.66,5,3.42,5c.62,0,1.09-1,1.09-3,0-2.85-1.51-3.43-1.51-6.78,0-8,12-14,12-14a17.84,17.84,0,0,0-.63,4.77c0,9.52,12,10.15,12,22.73,0,10.3-7.41,12.75-8.61,13.08a7.51,7.51,0,0,0,3.35-6.26,8.26,8.26,0,0,0-1.21-4.24S132.47,175,131,175c-.33,0-.58-.54-.58-1.61,0-1.52.81-1.83.81-3.62,0-4.25-6.38-7.48-6.38-7.48a9.59,9.59,0,0,1,.33,2.54C125.17,169.89,118.77,170.23,118.77,176.94ZM157.62,198H127V187h30.62Zm0-60.23H127v-11h30.62Zm0-15H144.31v-11h13.31Zm0-15H127v-11h30.62Zm0-15H144.31v-11h13.31Zm0-15H127V67h30.62Zm0-15H144.31V52h13.31Zm17.31,135H161.62V187h13.31Zm0-15H161.62v-11h13.31Zm0-15H161.62v-11h13.31Zm0-15.09H161.62V142h13.31Zm0-15.22H161.62v-11h13.31Z"/></svg>