<svg id="Layer_1" data-name="Layer 1" xmlns="http://www.w3.org/2000/svg" viewBox="0 0 250 250"><title>Artboard 1 copy 8</title><path d="M200,84.34h-7.24a2,2,0,0,0-2,2v17.44H92.37a2,2,0,0,0-2,2V113a2,2,0,0,0,2,2h1.42V136.1H50a2,2,0,0,0-2,2v7.23a2,2,0,0,0,2,2h98.82a2,2,0,0,0,2-2V138.1a2,2,0,0,0-2-2H105V115h85.73v17.44a2,2,0,0,0,2,2H200a2,2,0,0,0,2-2V86.34A2,2,0,0,0,200,84.34Zm-53.18,59H52V140.1h94.82ZM101,136.1H97.79V115H101ZM103,111H94.37v-3.24h96.39V111Zm95,19.44h-3.24V88.34H198ZM59.74,152.94v10.72a2,2,0,0,1-4,0V152.94a2,2,0,0,1,4,0Zm10.42,0v10.72a2,2,0,0,1-4,0V152.94a2,2,0,0,1,4,0Zm20.83,0v10.72a2,2,0,0,1-4,0V152.94a2,2,0,0,1,4,0Zm10.41,0v10.72a2,2,0,0,1-4,0V152.94a2,2,0,0,1,4,0Zm20.84,0v10.72a2,2,0,0,1-4,0V152.94a2,2,0,0,1,4,0Zm20.83,0v10.72a2,2,0,1,1-4,0V152.94a2,2,0,0,1,4,0Zm-31.26,0v10.71a2,2,0,0,1-4,0V152.93a2,2,0,0,1,4,0Zm20.85,0v10.71a2,2,0,0,1-4,0V152.93a2,2,0,0,1,4,0Zm-52.09,0v10.72a2,2,0,0,1-4,0V152.94a2,2,0,0,1,4,0Z"/></svg>