<svg id="Layer_1" data-name="Layer 1" xmlns="http://www.w3.org/2000/svg" viewBox="0 0 250 250"><title>Artboard 1 copy 5</title><path d="M226,136.86V108.37a1,1,0,0,0-2,0v15.11L126.54,94.34V82.58a1,1,0,0,0-2,0v11.8L26,129.32V110.15a1,1,0,0,0-2,0v33a2,2,0,0,0-1,1.57,2,2,0,0,0,1,1.89l13.12,7.27a2,2,0,0,0,1,.25,2.07,2.07,0,0,0,.77-.15l37.57-15.56,9.79,4.47-14.39,6.34a2,2,0,0,0-.09,3.62l15.68,7.85a2,2,0,0,0,.89.21,2.1,2.1,0,0,0,.85-.19l35.61-16.79,12.35,5.16-14,7.08a2,2,0,0,0,.07,3.6l18.64,8.51a2,2,0,0,0,.83.18,1.94,1.94,0,0,0,1-.25L176.79,150,196,157.39a2,2,0,0,0,1.75-.15l28.28-17a2,2,0,0,0,0-3.43Zm-34.65.58-13.17-4.71,9.06-4.59,13.11,4.36Zm14.61-7.3-18.25-6.06-17-5.64-15.84-5.27-14.82-4.92-13.52-4.49V100L224,129.8v6.34ZM26,142.28v-6.61l98.54-35.62v3.73L79.66,121.32Zm138.72-21.62-23.83,11.23-10-3.84-.61-.24,10.4-4.59h0l.25-.11h0l13.4-5.9Zm-24.65-1.53-9.19-3.28,8.63-3.57,9.18,3Zm-45.95,7.61-8.4-3.5,39.88-15.58,8.11,2.69ZM224,125.57v2.13L126.54,97.88V96.43ZM124.54,96.5v1.42L26,133.54v-2.1ZM38.25,149.88l-8.56-4.75,50.67-19.79,8.54,3.56Zm52.9-9.19-9.64-4.4,43.61-18,9.38,3.35-10.25,4.51L97.49,137.89Zm-2.78,15.95-11-5.5,47.75-21,10.77,4.15Zm53.47-10-12.16-5.08,40.54-19.1,11.68,3.87-7.57,3.84L172,131.39h0l-13.42,6.8Zm.8,17.51-13.94-6.36,38.61-19.58,5.7-2.89,13.41,4.79L175.68,146h0Zm53.89-10.87-15.15-5.83,24.15-13.26,14.71,4.88Z"/></svg>