<svg id="Layer_1" data-name="Layer 1" xmlns="http://www.w3.org/2000/svg" viewBox="0 0 250 250"><title>Artboard 1 copy 9</title><path d="M61.2,177.35h0a4.5,4.5,0,0,0-.11,9h.11a4.47,4.47,0,0,0,3.14-1.28,4.53,4.53,0,0,0,1.37-3.27A4.46,4.46,0,0,0,61.2,177.35Zm1.72,6.3a2.39,2.39,0,0,1-1.81.7,2.54,2.54,0,0,1-2.43-2.55,2.49,2.49,0,0,1,2.49-2.45h0a2.47,2.47,0,0,1,2.49,2.46A2.58,2.58,0,0,1,62.92,183.65ZM201,88.74a1.73,1.73,0,0,0-.5-.39L198.05,87c-2.16-1.16-4.85-2.61-6.08-3.33h0c-2.36-1.37-14.21-7.79-22.86-12.47-3.95-2.15-7-3.82-7.77-4.23h0l-5-2.7-7.41-4c-4.6-2.49-7.36-4-8.22-4.54-2.41-1.47-4.89-1-7.36,1.5C130.2,60.4,121.23,69.66,114,77.1c-4.73,4.89-8.82,9.11-9.71,10h0c-2.14,2.15-5.17,5.08-8.1,7.91s-5.85,5.64-7.93,7.72c-3.37,3.07-4.19,6.28-2.71,10.72.56,1.67,1.11,3.35,1.66,5,1.21,3.7,2.46,7.53,3.79,11.28,1,2.85.53,4.9-1.67,7.09-9.35,9.27-18.81,18.74-28,27.9l-9.69,9.7c-.43.43-.88.88-1.31,1.38a8.82,8.82,0,0,0,0,12c.81.95,1.69,1.81,2.55,2.65l.91.9c2.48,2.49,4.9,3.71,7.38,3.71h0c2.48,0,4.91-1.22,7.42-3.73l9.2-9.19c9.37-9.37,19.06-19,28.55-28.61a5.77,5.77,0,0,1,6.67-1.59c5.41,1.87,10.93,3.69,16.26,5.46l.67.22a9,9,0,0,0,10.28-2.86h0c2.11-2.11,5-5,7.83-7.9s5.8-5.88,7.94-8h0l20.22-20.23c7.32-7.33,22.54-22.58,24.33-24.35C202.69,92.13,202.12,90,201,88.74Zm-33.69,17.75-.51.51-7.31,7.4-.3.3-1,1c-.77.78-1.53,1.54-2.26,2.29l0,0-1.23,1.25-.41.41c-2,2-3.76,3.8-5.31,5.35l-.16.17-.63.63-.53.53-.43.43L147,127c-3.62-3.63-7.12-7.12-10.61-10.61l-.28-.28-10.27-10.27c3.55-3.53,8.7-8.63,14.11-14l2.75-2.72c6.71-6.65,13.63-13.5,18-17.87l5.59,3L156.5,84.76a1,1,0,0,0,.05,1.41,1,1,0,0,0,.68.27,1,1,0,0,0,.74-.32l10.16-10.86,12,6.52-20.51,20.78a1,1,0,0,0,0,1.41,1,1,0,0,0,.7.29,1,1,0,0,0,.71-.3L182,82.78l5.7,3.12C183,90.64,175,98.68,167.29,106.49Zm-50.4-26.6c7.2-7.44,16.16-16.68,19.28-19.8,1.5-1.49,2-1.17,2.45-.91.84.51,3.08,1.75,7,3.87L125.45,83.44a1,1,0,0,0,0,1.41,1,1,0,0,0,.7.29,1,1,0,0,0,.71-.3L147.42,64l7,3.79,2.62,1.41c-4.26,4.25-10.55,10.47-16.83,16.69l-2.5,2.48C132,94.09,126.66,99.36,123,103l-6.79-6.78-7.7-7.71C110.28,86.71,113.31,83.58,116.89,79.89Zm14.31,73.93-.66-.22c-5.32-1.76-10.83-3.58-16.21-5.44a9.74,9.74,0,0,0-10.81,2.55C94,160.27,84.34,170,75,179.31l-9.2,9.19c-1.72,1.72-3.22,2.56-4.59,2.56h0c-1.36,0-2.85-.83-4.55-2.54l-.94-.93c-.83-.81-1.61-1.58-2.32-2.4a4.82,4.82,0,0,1,0-6.76c.33-.38.71-.76,1.1-1.15l9.7-9.71c9.15-9.16,18.6-18.63,28-27.89,3.3-3.28,4.16-7,2.62-11.27-1.31-3.7-2.56-7.51-3.76-11.19q-.83-2.52-1.66-5c-.75-2.25-.69-3.71.37-5.17L136,153.32A4.93,4.93,0,0,1,131.2,153.82Zm14-9.78c-2.26,2.28-4.51,4.57-6.39,6.46L92.51,104.15c1.88-1.85,4.2-4.09,6.46-6.27s4.75-4.59,6.73-6.54l7.45,7.45.13.12,8.32,8.32h0l11.24,11.24,13.06,13.07,2.75,2.74,3.12,3.12C149.84,139.35,147.53,141.7,145.22,144Zm28.18-28.28-18.8,18.82L152,132l-.25-.25-1.9-1.9c4.54-4.56,12.59-12.7,20.4-20.6,8-8.07,16.2-16.38,20.82-21l.26-.26c1.4.77,3.27,1.78,4.85,2.63l1.58.85C195.87,93.26,180.7,108.45,173.4,115.76Zm-33.67,23a1,1,0,0,1,0,1.41,1,1,0,0,1-1.42,0L102.76,104a1,1,0,0,1,1.42-1.4Z"/></svg>