<svg id="Layer_1" data-name="Layer 1" xmlns="http://www.w3.org/2000/svg" viewBox="0 0 250 250"><title>Artboard 1 copy 7</title><path d="M81.36,135.35a2,2,0,0,1-1.63.85,2,2,0,0,1-1.15-.37l-22.19-15.7a2,2,0,1,1,2.31-3.26l22.19,15.69A2,2,0,0,1,81.36,135.35Zm89.18-.61a2,2,0,0,0,1.15-.36l20.92-14.8a2,2,0,0,0-2.31-3.27l-20.92,14.8a2,2,0,0,0,1.16,3.63Zm31.46-23V124a2,2,0,0,1-.83,1.62L168.92,149a2,2,0,0,1-2.22.09l-1.68-1v2.47a2,2,0,0,1-.83,1.61l-38,27.59a2,2,0,0,1-2.35,0l-38-27.56a2,2,0,0,1-.83-1.62V148.1l-1.68,1a2,2,0,0,1-2.22-.09L48.83,125.63A2,2,0,0,1,48,124V111.79A2,2,0,0,1,49.06,110L86.68,89.92a2,2,0,0,1,2,.06l1.64,1V89.34a2,2,0,0,1,1.06-1.76L124,70.09a2,2,0,0,1,1.89,0l32.69,17.47a2,2,0,0,1,1.06,1.77V91l1.64-1a2,2,0,0,1,2-.06L200.94,110A2,2,0,0,1,202,111.79ZM94.32,93.45l27,16.66a2,2,0,0,1,1,1.7v2.45l1.64-1a2,2,0,0,1,2.1,0l1.68,1v-2.47a2,2,0,0,1,1-1.7l27-16.66V90.52L125,74.12,94.32,90.54ZM85,143.4v-5a2,2,0,0,1,1-1.7l32.36-19.95v-3.79L87.56,94,52,113v10l30.35,22Zm76-3.94L125,117.3,89,139.49v10.08l36,26.11,36-26.13ZM198,113,162.44,94l-30.73,18.94v3.81l32.36,19.9a2,2,0,0,1,1,1.7v5.06l2.63,1.62L198,123Zm-97.94,32.87a2,2,0,1,0-2.31,3.27l26.11,18.43.09.05a2.53,2.53,0,0,0,.37.18l.16.06a2.25,2.25,0,0,0,.52.07h0a2.25,2.25,0,0,0,.52-.07l.16-.06a1.85,1.85,0,0,0,.37-.19l.09,0,26.09-18.45a2,2,0,0,0-2.31-3.27L125,163.48Z"/></svg>