<svg id="Layer_1" data-name="Layer 1" xmlns="http://www.w3.org/2000/svg" viewBox="0 0 250 250"><title>Artboard 1 copy</title><path d="M200,123H186.46l14.93-14.93a2,2,0,0,0-2.83-2.83L180.8,123H170.27l31.12-31.12a2,2,0,0,0-2.83-2.83l-33.94,34H154.08l47.33-47.33a2,2,0,1,0-2.82-2.83L148.43,123H137.9l63.49-63.49a2,2,0,0,0-2.83-2.83L132.24,123H127v-5.29l66.3-66.3a2,2,0,0,0-2.83-2.82L127,112.06V101.53l50.11-50.12a2,2,0,0,0-2.82-2.82L127,95.87V85.34l33.92-33.92a2,2,0,0,0-2.82-2.83L127,79.69V69.16l17.74-17.75a2,2,0,0,0-2.83-2.82L127,63.5V50a2,2,0,0,0-2-2H50a2,2,0,0,0-2,2V200a2,2,0,0,0,2,2H200a2,2,0,0,0,2-2V125A2,2,0,0,0,200,123ZM52,52h71v71H52Zm0,75h71v71H52Zm146,71H127V127h71ZM90.59,61.06a2,2,0,0,1-2,2H63.06V88.59a2,2,0,0,1-4,0V61.06a2,2,0,0,1,2-2H88.59A2,2,0,0,1,90.59,61.06Zm0,75a2,2,0,0,1-2,2H63.06v25.53a2,2,0,0,1-4,0V136.06a2,2,0,0,1,2-2H88.59A2,2,0,0,1,90.59,136.06Zm43.47,27.53V136.06a2,2,0,0,1,2-2h27.53a2,2,0,0,1,0,4H138.06v25.53a2,2,0,0,1-4,0Z"/></svg>